<svg width="18" height="21" viewBox="0 0 18 21" fill="none" xmlns="http://www.w3.org/2000/svg">
<path d="M6.66699 18.5C6.75167 18.7885 6.9275 19.0417 7.16816 19.2219C7.40882 19.4021 7.70136 19.4994 8.00199 19.4994C8.30262 19.4994 8.59516 19.4021 8.83582 19.2219C9.07648 19.0417 9.25231 18.7885 9.33699 18.5" stroke="#5F5457" stroke-width="1.5" stroke-linecap="round" stroke-linejoin="round"/>
<path d="M8 6V4.5" stroke="#5F5457" stroke-width="1.5" stroke-linecap="round" stroke-linejoin="round"/>
<path d="M8 6C9.32608 6 10.5979 6.52678 11.5355 7.46447C12.4732 8.40215 13 9.67392 13 11C13 15.6973 14 16.5 14 16.5H2C2 16.5 3 15.2227 3 11C3 9.67392 3.52678 8.40215 4.46447 7.46447C5.40215 6.52678 6.67392 6 8 6V6Z" stroke="#5F5457" stroke-width="1.5" stroke-linecap="round" stroke-linejoin="round"/>
<circle cx="15.6663" cy="3.00033" r="2.33333" fill="#F26522"/>
</svg>
