<svg width="20" height="18" viewBox="0 0 20 18" fill="none" xmlns="http://www.w3.org/2000/svg">
<path d="M1 3H4" stroke="#292D32" stroke-width="1.5" stroke-linecap="round"/>
<path d="M1 15H4" stroke="#292D32" stroke-width="1.5" stroke-linecap="round"/>
<path d="M12 3H19" stroke="#292D32" stroke-width="1.5" stroke-linecap="round"/>
<path d="M12 15H19" stroke="#292D32" stroke-width="1.5" stroke-linecap="round"/>
<path d="M1 9H13" stroke="#292D32" stroke-width="1.5" stroke-linecap="round"/>
<path d="M8.5 1H7.5C6.67157 1 6 1.67157 6 2.5V3.5C6 4.32843 6.67157 5 7.5 5H8.5C9.32843 5 10 4.32843 10 3.5V2.5C10 1.67157 9.32843 1 8.5 1Z" stroke="#292D32" stroke-width="1.5"/>
<path d="M8.5 13H7.5C6.67157 13 6 13.6716 6 14.5V15.5C6 16.3284 6.67157 17 7.5 17H8.5C9.32843 17 10 16.3284 10 15.5V14.5C10 13.6716 9.32843 13 8.5 13Z" stroke="#292D32" stroke-width="1.5"/>
<path d="M17.5 7H16.5C15.6716 7 15 7.67157 15 8.5V9.5C15 10.3284 15.6716 11 16.5 11H17.5C18.3284 11 19 10.3284 19 9.5V8.5C19 7.67157 18.3284 7 17.5 7Z" stroke="#292D32" stroke-width="1.5"/>
</svg>
