<svg class="svg-icon" style="width: 1em; height: 1em;vertical-align: middle;fill: currentColor;overflow: hidden;" viewBox="0 0 1024 1024" version="1.1" xmlns="http://www.w3.org/2000/svg"><path d="M754.6 928.8c-7 0-14-1.7-20.5-5.1L512.2 807 290.3 923.7c-14.9 7.8-32.6 6.5-46.2-3.3-13.6-9.9-20.3-26.3-17.5-42.9L269 630.3l-179.5-175c-12-11.7-16.3-29-11.1-45 5.2-16 18.8-27.4 35.4-29.9l248.1-36.1 111-224.8c7.4-15.1 22.5-24.5 39.3-24.5s31.9 9.4 39.3 24.5l111 224.8 248.1 36.1c16.6 2.4 30.2 13.9 35.4 29.9 5.2 16 0.9 33.2-11.1 45l-179.5 175 42.4 247.1c2.8 16.6-3.8 33-17.5 42.9-7.6 5.7-16.6 8.5-25.7 8.5z m-574-485.2l149.3 145.6c10.3 10.1 15.1 24.6 12.6 38.8l-35.2 205.5 184.6-97c12.8-6.7 28-6.7 40.8 0l184.6 97L682 627.9a44.07 44.07 0 0 1 12.6-38.8l149.3-145.6-206.4-30c-14.3-2.1-26.6-11-33-24l-92.3-187-92.3 187c-6.4 12.9-18.7 21.9-33 24l-206.3 30.1z m719.7 8.2z"  /></svg>